<svg xmlns="http://www.w3.org/2000/svg" viewBox="0 0 744 158" role="img" aria-label="提交热力图" style="max-width:100%;height:auto;display:block">
  <text x="36" y="16" font-size="11" fill="#7d8590" font-family="-apple-system,Segoe UI,Helvetica,Arial,sans-serif">2025-12</text>
  <text x="36" y="16" font-size="11" fill="#7d8590" font-family="-apple-system,Segoe UI,Helvetica,Arial,sans-serif">2026-01</text>
  <text x="126" y="16" font-size="11" fill="#7d8590" font-family="-apple-system,Segoe UI,Helvetica,Arial,sans-serif">2026-02</text>
  <text x="198" y="16" font-size="11" fill="#7d8590" font-family="-apple-system,Segoe UI,Helvetica,Arial,sans-serif">2026-03</text>
  <text x="270" y="16" font-size="11" fill="#7d8590" font-family="-apple-system,Segoe UI,Helvetica,Arial,sans-serif">2026-04</text>
  <text x="342" y="16" font-size="11" fill="#7d8590" font-family="-apple-system,Segoe UI,Helvetica,Arial,sans-serif">2026-05</text>
  <text x="432" y="16" font-size="11" fill="#7d8590" font-family="-apple-system,Segoe UI,Helvetica,Arial,sans-serif">2026-06</text>
  <text x="504" y="16" font-size="11" fill="#7d8590" font-family="-apple-system,Segoe UI,Helvetica,Arial,sans-serif">2026-07</text>
  <text x="576" y="16" font-size="11" fill="#7d8590" font-family="-apple-system,Segoe UI,Helvetica,Arial,sans-serif">2026-08</text>
  <text x="666" y="16" font-size="11" fill="#7d8590" font-family="-apple-system,Segoe UI,Helvetica,Arial,sans-serif">2026-09</text>
  <text x="0" y="55" font-size="11" fill="#7d8590" font-family="-apple-system,Segoe UI,Helvetica,Arial,sans-serif">Mon</text>
  <text x="0" y="91" font-size="11" fill="#7d8590" font-family="-apple-system,Segoe UI,Helvetica,Arial,sans-serif">Wed</text>
  <text x="0" y="127" font-size="11" fill="#7d8590" font-family="-apple-system,Segoe UI,Helvetica,Arial,sans-serif">Fri</text>
  <rect x="36" y="26" width="14" height="14" rx="2" ry="2" fill="#006d32"/>
  <rect x="36" y="44" width="14" height="14" rx="2" ry="2" fill="#006d32"/>
  <rect x="36" y="62" width="14" height="14" rx="2" ry="2" fill="#39d353"/>
  <rect x="36" y="80" width="14" height="14" rx="2" ry="2" fill="#161b22"/>
  <rect x="36" y="98" width="14" height="14" rx="2" ry="2" fill="#006d32"/>
  <rect x="36" y="116" width="14" height="14" rx="2" ry="2" fill="#0e4429"/>
  <rect x="36" y="134" width="14" height="14" rx="2" ry="2" fill="#161b22"/>
  <rect x="54" y="26" width="14" height="14" rx="2" ry="2" fill="#161b22"/>
  <rect x="54" y="44" width="14" height="14" rx="2" ry="2" fill="#161b22"/>
  <rect x="54" y="62" width="14" height="14" rx="2" ry="2" fill="#161b22"/>
  <rect x="54" y="80" width="14" height="14" rx="2" ry="2" fill="#161b22"/>
  <rect x="54" y="98" width="14" height="14" rx="2" ry="2" fill="#161b22"/>
  <rect x="54" y="116" width="14" height="14" rx="2" ry="2" fill="#006d32"/>
  <rect x="54" y="134" width="14" height="14" rx="2" ry="2" fill="#0e4429"/>
  <rect x="72" y="26" width="14" height="14" rx="2" ry="2" fill="#161b22"/>
  <rect x="72" y="44" width="14" height="14" rx="2" ry="2" fill="#161b22"/>
  <rect x="72" y="62" width="14" height="14" rx="2" ry="2" fill="#0e4429"/>
  <rect x="72" y="80" width="14" height="14" rx="2" ry="2" fill="#0e4429"/>
  <rect x="72" y="98" width="14" height="14" rx="2" ry="2" fill="#161b22"/>
  <rect x="72" y="116" width="14" height="14" rx="2" ry="2" fill="#0e4429"/>
  <rect x="72" y="134" width="14" height="14" rx="2" ry="2" fill="#161b22"/>
  <rect x="90" y="26" width="14" height="14" rx="2" ry="2" fill="#161b22"/>
  <rect x="90" y="44" width="14" height="14" rx="2" ry="2" fill="#161b22"/>
  <rect x="90" y="62" width="14" height="14" rx="2" ry="2" fill="#161b22"/>
  <rect x="90" y="80" width="14" height="14" rx="2" ry="2" fill="#006d32"/>
  <rect x="90" y="98" width="14" height="14" rx="2" ry="2" fill="#161b22"/>
  <rect x="90" y="116" width="14" height="14" rx="2" ry="2" fill="#0e4429"/>
  <rect x="90" y="134" width="14" height="14" rx="2" ry="2" fill="#161b22"/>
  <rect x="108" y="26" width="14" height="14" rx="2" ry="2" fill="#161b22"/>
  <rect x="108" y="44" width="14" height="14" rx="2" ry="2" fill="#161b22"/>
  <rect x="108" y="62" width="14" height="14" rx="2" ry="2" fill="#161b22"/>
  <rect x="108" y="80" width="14" height="14" rx="2" ry="2" fill="#161b22"/>
  <rect x="108" y="98" width="14" height="14" rx="2" ry="2" fill="#161b22"/>
  <rect x="108" y="116" width="14" height="14" rx="2" ry="2" fill="#161b22"/>
  <rect x="108" y="134" width="14" height="14" rx="2" ry="2" fill="#161b22"/>
  <rect x="126" y="26" width="14" height="14" rx="2" ry="2" fill="#161b22"/>
  <rect x="126" y="44" width="14" height="14" rx="2" ry="2" fill="#0e4429"/>
  <rect x="126" y="62" width="14" height="14" rx="2" ry="2" fill="#161b22"/>
  <rect x="126" y="80" width="14" height="14" rx="2" ry="2" fill="#161b22"/>
  <rect x="126" y="98" width="14" height="14" rx="2" ry="2" fill="#0e4429"/>
  <rect x="126" y="116" width="14" height="14" rx="2" ry="2" fill="#0e4429"/>
  <rect x="126" y="134" width="14" height="14" rx="2" ry="2" fill="#0e4429"/>
  <rect x="144" y="26" width="14" height="14" rx="2" ry="2" fill="#39d353"/>
  <rect x="144" y="44" width="14" height="14" rx="2" ry="2" fill="#0e4429"/>
  <rect x="144" y="62" width="14" height="14" rx="2" ry="2" fill="#006d32"/>
  <rect x="144" y="80" width="14" height="14" rx="2" ry="2" fill="#0e4429"/>
  <rect x="144" y="98" width="14" height="14" rx="2" ry="2" fill="#26a641"/>
  <rect x="144" y="116" width="14" height="14" rx="2" ry="2" fill="#161b22"/>
  <rect x="144" y="134" width="14" height="14" rx="2" ry="2" fill="#26a641"/>
  <rect x="162" y="26" width="14" height="14" rx="2" ry="2" fill="#161b22"/>
  <rect x="162" y="44" width="14" height="14" rx="2" ry="2" fill="#26a641"/>
  <rect x="162" y="62" width="14" height="14" rx="2" ry="2" fill="#161b22"/>
  <rect x="162" y="80" width="14" height="14" rx="2" ry="2" fill="#161b22"/>
  <rect x="162" y="98" width="14" height="14" rx="2" ry="2" fill="#161b22"/>
  <rect x="162" y="116" width="14" height="14" rx="2" ry="2" fill="#161b22"/>
  <rect x="162" y="134" width="14" height="14" rx="2" ry="2" fill="#161b22"/>
  <rect x="180" y="26" width="14" height="14" rx="2" ry="2" fill="#161b22"/>
  <rect x="180" y="44" width="14" height="14" rx="2" ry="2" fill="#161b22"/>
  <rect x="180" y="62" width="14" height="14" rx="2" ry="2" fill="#161b22"/>
  <rect x="180" y="80" width="14" height="14" rx="2" ry="2" fill="#161b22"/>
  <rect x="180" y="98" width="14" height="14" rx="2" ry="2" fill="#161b22"/>
  <rect x="180" y="116" width="14" height="14" rx="2" ry="2" fill="#161b22"/>
  <rect x="180" y="134" width="14" height="14" rx="2" ry="2" fill="#161b22"/>
  <rect x="198" y="26" width="14" height="14" rx="2" ry="2" fill="#161b22"/>
  <rect x="198" y="44" width="14" height="14" rx="2" ry="2" fill="#161b22"/>
  <rect x="198" y="62" width="14" height="14" rx="2" ry="2" fill="#161b22"/>
  <rect x="198" y="80" width="14" height="14" rx="2" ry="2" fill="#161b22"/>
  <rect x="198" y="98" width="14" height="14" rx="2" ry="2" fill="#161b22"/>
  <rect x="198" y="116" width="14" height="14" rx="2" ry="2" fill="#161b22"/>
  <rect x="198" y="134" width="14" height="14" rx="2" ry="2" fill="#161b22"/>
  <rect x="216" y="26" width="14" height="14" rx="2" ry="2" fill="#161b22"/>
  <rect x="216" y="44" width="14" height="14" rx="2" ry="2" fill="#161b22"/>
  <rect x="216" y="62" width="14" height="14" rx="2" ry="2" fill="#161b22"/>
  <rect x="216" y="80" width="14" height="14" rx="2" ry="2" fill="#161b22"/>
  <rect x="216" y="98" width="14" height="14" rx="2" ry="2" fill="#161b22"/>
  <rect x="216" y="116" width="14" height="14" rx="2" ry="2" fill="#161b22"/>
  <rect x="216" y="134" width="14" height="14" rx="2" ry="2" fill="#161b22"/>
  <rect x="234" y="26" width="14" height="14" rx="2" ry="2" fill="#161b22"/>
  <rect x="234" y="44" width="14" height="14" rx="2" ry="2" fill="#161b22"/>
  <rect x="234" y="62" width="14" height="14" rx="2" ry="2" fill="#161b22"/>
  <rect x="234" y="80" width="14" height="14" rx="2" ry="2" fill="#161b22"/>
  <rect x="234" y="98" width="14" height="14" rx="2" ry="2" fill="#161b22"/>
  <rect x="234" y="116" width="14" height="14" rx="2" ry="2" fill="#161b22"/>
  <rect x="234" y="134" width="14" height="14" rx="2" ry="2" fill="#161b22"/>
  <rect x="252" y="26" width="14" height="14" rx="2" ry="2" fill="#0e4429"/>
  <rect x="252" y="44" width="14" height="14" rx="2" ry="2" fill="#161b22"/>
  <rect x="252" y="62" width="14" height="14" rx="2" ry="2" fill="#161b22"/>
  <rect x="252" y="80" width="14" height="14" rx="2" ry="2" fill="#161b22"/>
  <rect x="252" y="98" width="14" height="14" rx="2" ry="2" fill="#161b22"/>
  <rect x="252" y="116" width="14" height="14" rx="2" ry="2" fill="#161b22"/>
  <rect x="252" y="134" width="14" height="14" rx="2" ry="2" fill="#161b22"/>
  <rect x="270" y="26" width="14" height="14" rx="2" ry="2" fill="#161b22"/>
  <rect x="270" y="44" width="14" height="14" rx="2" ry="2" fill="#161b22"/>
  <rect x="270" y="62" width="14" height="14" rx="2" ry="2" fill="#161b22"/>
  <rect x="270" y="80" width="14" height="14" rx="2" ry="2" fill="#161b22"/>
  <rect x="270" y="98" width="14" height="14" rx="2" ry="2" fill="#161b22"/>
  <rect x="270" y="116" width="14" height="14" rx="2" ry="2" fill="#161b22"/>
  <rect x="270" y="134" width="14" height="14" rx="2" ry="2" fill="#161b22"/>
  <rect x="288" y="26" width="14" height="14" rx="2" ry="2" fill="#161b22"/>
  <rect x="288" y="44" width="14" height="14" rx="2" ry="2" fill="#39d353"/>
  <rect x="288" y="62" width="14" height="14" rx="2" ry="2" fill="#161b22"/>
  <rect x="288" y="80" width="14" height="14" rx="2" ry="2" fill="#161b22"/>
  <rect x="288" y="98" width="14" height="14" rx="2" ry="2" fill="#0e4429"/>
  <rect x="288" y="116" width="14" height="14" rx="2" ry="2" fill="#0e4429"/>
  <rect x="288" y="134" width="14" height="14" rx="2" ry="2" fill="#006d32"/>
  <rect x="306" y="26" width="14" height="14" rx="2" ry="2" fill="#0e4429"/>
  <rect x="306" y="44" width="14" height="14" rx="2" ry="2" fill="#0e4429"/>
  <rect x="306" y="62" width="14" height="14" rx="2" ry="2" fill="#161b22"/>
  <rect x="306" y="80" width="14" height="14" rx="2" ry="2" fill="#161b22"/>
  <rect x="306" y="98" width="14" height="14" rx="2" ry="2" fill="#161b22"/>
  <rect x="306" y="116" width="14" height="14" rx="2" ry="2" fill="#161b22"/>
  <rect x="306" y="134" width="14" height="14" rx="2" ry="2" fill="#161b22"/>
  <rect x="324" y="26" width="14" height="14" rx="2" ry="2" fill="#161b22"/>
  <rect x="324" y="44" width="14" height="14" rx="2" ry="2" fill="#161b22"/>
  <rect x="324" y="62" width="14" height="14" rx="2" ry="2" fill="#161b22"/>
  <rect x="324" y="80" width="14" height="14" rx="2" ry="2" fill="#161b22"/>
  <rect x="324" y="98" width="14" height="14" rx="2" ry="2" fill="#161b22"/>
  <rect x="324" y="116" width="14" height="14" rx="2" ry="2" fill="#161b22"/>
  <rect x="324" y="134" width="14" height="14" rx="2" ry="2" fill="#006d32"/>
  <rect x="342" y="26" width="14" height="14" rx="2" ry="2" fill="#0e4429"/>
  <rect x="342" y="44" width="14" height="14" rx="2" ry="2" fill="#161b22"/>
  <rect x="342" y="62" width="14" height="14" rx="2" ry="2" fill="#161b22"/>
  <rect x="342" y="80" width="14" height="14" rx="2" ry="2" fill="#161b22"/>
  <rect x="342" y="98" width="14" height="14" rx="2" ry="2" fill="#161b22"/>
  <rect x="342" y="116" width="14" height="14" rx="2" ry="2" fill="#161b22"/>
  <rect x="342" y="134" width="14" height="14" rx="2" ry="2" fill="#161b22"/>
  <rect x="360" y="26" width="14" height="14" rx="2" ry="2" fill="#161b22"/>
  <rect x="360" y="44" width="14" height="14" rx="2" ry="2" fill="#161b22"/>
  <rect x="360" y="62" width="14" height="14" rx="2" ry="2" fill="#161b22"/>
  <rect x="360" y="80" width="14" height="14" rx="2" ry="2" fill="#161b22"/>
  <rect x="360" y="98" width="14" height="14" rx="2" ry="2" fill="#161b22"/>
  <rect x="360" y="116" width="14" height="14" rx="2" ry="2" fill="#161b22"/>
  <rect x="360" y="134" width="14" height="14" rx="2" ry="2" fill="#161b22"/>
  <rect x="378" y="26" width="14" height="14" rx="2" ry="2" fill="#161b22"/>
  <rect x="378" y="44" width="14" height="14" rx="2" ry="2" fill="#161b22"/>
  <rect x="378" y="62" width="14" height="14" rx="2" ry="2" fill="#161b22"/>
  <rect x="378" y="80" width="14" height="14" rx="2" ry="2" fill="#161b22"/>
  <rect x="378" y="98" width="14" height="14" rx="2" ry="2" fill="#161b22"/>
  <rect x="378" y="116" width="14" height="14" rx="2" ry="2" fill="#161b22"/>
  <rect x="378" y="134" width="14" height="14" rx="2" ry="2" fill="#0e4429"/>
  <rect x="396" y="26" width="14" height="14" rx="2" ry="2" fill="#161b22"/>
  <rect x="396" y="44" width="14" height="14" rx="2" ry="2" fill="#161b22"/>
  <rect x="396" y="62" width="14" height="14" rx="2" ry="2" fill="#161b22"/>
  <rect x="396" y="80" width="14" height="14" rx="2" ry="2" fill="#161b22"/>
  <rect x="396" y="98" width="14" height="14" rx="2" ry="2" fill="#161b22"/>
  <rect x="396" y="116" width="14" height="14" rx="2" ry="2" fill="#161b22"/>
  <rect x="396" y="134" width="14" height="14" rx="2" ry="2" fill="#161b22"/>
  <rect x="414" y="26" width="14" height="14" rx="2" ry="2" fill="#161b22"/>
  <rect x="414" y="44" width="14" height="14" rx="2" ry="2" fill="#161b22"/>
  <rect x="414" y="62" width="14" height="14" rx="2" ry="2" fill="#161b22"/>
  <rect x="414" y="80" width="14" height="14" rx="2" ry="2" fill="#161b22"/>
  <rect x="414" y="98" width="14" height="14" rx="2" ry="2" fill="#161b22"/>
  <rect x="414" y="116" width="14" height="14" rx="2" ry="2" fill="#161b22"/>
  <rect x="414" y="134" width="14" height="14" rx="2" ry="2" fill="#161b22"/>
  <rect x="432" y="26" width="14" height="14" rx="2" ry="2" fill="#161b22"/>
  <rect x="432" y="44" width="14" height="14" rx="2" ry="2" fill="#161b22"/>
  <rect x="432" y="62" width="14" height="14" rx="2" ry="2" fill="#161b22"/>
  <rect x="432" y="80" width="14" height="14" rx="2" ry="2" fill="#161b22"/>
  <rect x="432" y="98" width="14" height="14" rx="2" ry="2" fill="#161b22"/>
  <rect x="432" y="116" width="14" height="14" rx="2" ry="2" fill="#161b22"/>
  <rect x="432" y="134" width="14" height="14" rx="2" ry="2" fill="#161b22"/>
  <rect x="450" y="26" width="14" height="14" rx="2" ry="2" fill="#161b22"/>
  <rect x="450" y="44" width="14" height="14" rx="2" ry="2" fill="#161b22"/>
  <rect x="450" y="62" width="14" height="14" rx="2" ry="2" fill="#161b22"/>
  <rect x="450" y="80" width="14" height="14" rx="2" ry="2" fill="#161b22"/>
  <rect x="450" y="98" width="14" height="14" rx="2" ry="2" fill="#161b22"/>
  <rect x="450" y="116" width="14" height="14" rx="2" ry="2" fill="#161b22"/>
  <rect x="450" y="134" width="14" height="14" rx="2" ry="2" fill="#161b22"/>
  <rect x="468" y="26" width="14" height="14" rx="2" ry="2" fill="#161b22"/>
  <rect x="468" y="44" width="14" height="14" rx="2" ry="2" fill="#161b22"/>
  <rect x="468" y="62" width="14" height="14" rx="2" ry="2" fill="#161b22"/>
  <rect x="468" y="80" width="14" height="14" rx="2" ry="2" fill="#161b22"/>
  <rect x="468" y="98" width="14" height="14" rx="2" ry="2" fill="#161b22"/>
  <rect x="468" y="116" width="14" height="14" rx="2" ry="2" fill="#161b22"/>
  <rect x="468" y="134" width="14" height="14" rx="2" ry="2" fill="#161b22"/>
  <rect x="486" y="26" width="14" height="14" rx="2" ry="2" fill="#161b22"/>
  <rect x="486" y="44" width="14" height="14" rx="2" ry="2" fill="#0e4429"/>
  <rect x="486" y="62" width="14" height="14" rx="2" ry="2" fill="#161b22"/>
  <rect x="486" y="80" width="14" height="14" rx="2" ry="2" fill="#0e4429"/>
  <rect x="486" y="98" width="14" height="14" rx="2" ry="2" fill="#006d32"/>
  <rect x="486" y="116" width="14" height="14" rx="2" ry="2" fill="#006d32"/>
  <rect x="486" y="134" width="14" height="14" rx="2" ry="2" fill="#0e4429"/>
  <rect x="504" y="26" width="14" height="14" rx="2" ry="2" fill="#161b22"/>
  <rect x="504" y="44" width="14" height="14" rx="2" ry="2" fill="#161b22"/>
  <rect x="504" y="62" width="14" height="14" rx="2" ry="2" fill="#161b22"/>
  <rect x="504" y="80" width="14" height="14" rx="2" ry="2" fill="#161b22"/>
  <rect x="504" y="98" width="14" height="14" rx="2" ry="2" fill="#161b22"/>
  <rect x="504" y="116" width="14" height="14" rx="2" ry="2" fill="#161b22"/>
  <rect x="504" y="134" width="14" height="14" rx="2" ry="2" fill="#161b22"/>
  <rect x="522" y="26" width="14" height="14" rx="2" ry="2" fill="#161b22"/>
  <rect x="522" y="44" width="14" height="14" rx="2" ry="2" fill="#161b22"/>
  <rect x="522" y="62" width="14" height="14" rx="2" ry="2" fill="#006d32"/>
  <rect x="522" y="80" width="14" height="14" rx="2" ry="2" fill="#161b22"/>
  <rect x="522" y="98" width="14" height="14" rx="2" ry="2" fill="#161b22"/>
  <rect x="522" y="116" width="14" height="14" rx="2" ry="2" fill="#161b22"/>
  <rect x="522" y="134" width="14" height="14" rx="2" ry="2" fill="#161b22"/>
  <rect x="540" y="26" width="14" height="14" rx="2" ry="2" fill="#161b22"/>
  <rect x="540" y="44" width="14" height="14" rx="2" ry="2" fill="#161b22"/>
  <rect x="540" y="62" width="14" height="14" rx="2" ry="2" fill="#0e4429"/>
  <rect x="540" y="80" width="14" height="14" rx="2" ry="2" fill="#0e4429"/>
  <rect x="540" y="98" width="14" height="14" rx="2" ry="2" fill="#0e4429"/>
  <rect x="540" y="116" width="14" height="14" rx="2" ry="2" fill="#161b22"/>
  <rect x="540" y="134" width="14" height="14" rx="2" ry="2" fill="#161b22"/>
  <rect x="558" y="26" width="14" height="14" rx="2" ry="2" fill="#161b22"/>
  <rect x="558" y="44" width="14" height="14" rx="2" ry="2" fill="#161b22"/>
  <rect x="558" y="62" width="14" height="14" rx="2" ry="2" fill="#161b22"/>
  <rect x="558" y="80" width="14" height="14" rx="2" ry="2" fill="#161b22"/>
  <rect x="558" y="98" width="14" height="14" rx="2" ry="2" fill="#161b22"/>
  <rect x="558" y="116" width="14" height="14" rx="2" ry="2" fill="#161b22"/>
  <rect x="558" y="134" width="14" height="14" rx="2" ry="2" fill="#161b22"/>
  <rect x="576" y="26" width="14" height="14" rx="2" ry="2" fill="#161b22"/>
  <rect x="576" y="44" width="14" height="14" rx="2" ry="2" fill="#161b22"/>
  <rect x="576" y="62" width="14" height="14" rx="2" ry="2" fill="#161b22"/>
  <rect x="576" y="80" width="14" height="14" rx="2" ry="2" fill="#161b22"/>
  <rect x="576" y="98" width="14" height="14" rx="2" ry="2" fill="#161b22"/>
  <rect x="576" y="116" width="14" height="14" rx="2" ry="2" fill="#161b22"/>
  <rect x="576" y="134" width="14" height="14" rx="2" ry="2" fill="#161b22"/>
  <rect x="594" y="26" width="14" height="14" rx="2" ry="2" fill="#161b22"/>
  <rect x="594" y="44" width="14" height="14" rx="2" ry="2" fill="#161b22"/>
  <rect x="594" y="62" width="14" height="14" rx="2" ry="2" fill="#161b22"/>
  <rect x="594" y="80" width="14" height="14" rx="2" ry="2" fill="#161b22"/>
  <rect x="594" y="98" width="14" height="14" rx="2" ry="2" fill="#161b22"/>
  <rect x="594" y="116" width="14" height="14" rx="2" ry="2" fill="#161b22"/>
  <rect x="594" y="134" width="14" height="14" rx="2" ry="2" fill="#161b22"/>
  <rect x="612" y="26" width="14" height="14" rx="2" ry="2" fill="#161b22"/>
  <rect x="612" y="44" width="14" height="14" rx="2" ry="2" fill="#161b22"/>
  <rect x="612" y="62" width="14" height="14" rx="2" ry="2" fill="#161b22"/>
  <rect x="612" y="80" width="14" height="14" rx="2" ry="2" fill="#161b22"/>
  <rect x="612" y="98" width="14" height="14" rx="2" ry="2" fill="#161b22"/>
  <rect x="612" y="116" width="14" height="14" rx="2" ry="2" fill="#161b22"/>
  <rect x="612" y="134" width="14" height="14" rx="2" ry="2" fill="#161b22"/>
  <rect x="630" y="26" width="14" height="14" rx="2" ry="2" fill="#161b22"/>
  <rect x="630" y="44" width="14" height="14" rx="2" ry="2" fill="#161b22"/>
  <rect x="630" y="62" width="14" height="14" rx="2" ry="2" fill="#161b22"/>
  <rect x="630" y="80" width="14" height="14" rx="2" ry="2" fill="#161b22"/>
  <rect x="630" y="98" width="14" height="14" rx="2" ry="2" fill="#161b22"/>
  <rect x="630" y="116" width="14" height="14" rx="2" ry="2" fill="#161b22"/>
  <rect x="630" y="134" width="14" height="14" rx="2" ry="2" fill="#161b22"/>
  <rect x="648" y="26" width="14" height="14" rx="2" ry="2" fill="#161b22"/>
  <rect x="648" y="44" width="14" height="14" rx="2" ry="2" fill="#161b22"/>
  <rect x="648" y="62" width="14" height="14" rx="2" ry="2" fill="#0e4429"/>
  <rect x="648" y="80" width="14" height="14" rx="2" ry="2" fill="#161b22"/>
  <rect x="648" y="98" width="14" height="14" rx="2" ry="2" fill="#161b22"/>
  <rect x="648" y="116" width="14" height="14" rx="2" ry="2" fill="#161b22"/>
  <rect x="648" y="134" width="14" height="14" rx="2" ry="2" fill="#161b22"/>
  <rect x="666" y="26" width="14" height="14" rx="2" ry="2" fill="#161b22"/>
  <rect x="666" y="44" width="14" height="14" rx="2" ry="2" fill="#161b22"/>
  <rect x="666" y="62" width="14" height="14" rx="2" ry="2" fill="#161b22"/>
  <rect x="666" y="80" width="14" height="14" rx="2" ry="2" fill="#161b22"/>
  <rect x="666" y="98" width="14" height="14" rx="2" ry="2" fill="#161b22"/>
  <rect x="666" y="116" width="14" height="14" rx="2" ry="2" fill="#161b22"/>
  <rect x="666" y="134" width="14" height="14" rx="2" ry="2" fill="#161b22"/>
  <rect x="684" y="26" width="14" height="14" rx="2" ry="2" fill="#161b22"/>
  <rect x="684" y="44" width="14" height="14" rx="2" ry="2" fill="#161b22"/>
  <rect x="684" y="62" width="14" height="14" rx="2" ry="2" fill="#161b22"/>
  <rect x="684" y="80" width="14" height="14" rx="2" ry="2" fill="#161b22"/>
  <rect x="684" y="98" width="14" height="14" rx="2" ry="2" fill="#161b22"/>
  <rect x="684" y="116" width="14" height="14" rx="2" ry="2" fill="#161b22"/>
  <rect x="684" y="134" width="14" height="14" rx="2" ry="2" fill="#161b22"/>
  <rect x="702" y="26" width="14" height="14" rx="2" ry="2" fill="#161b22"/>
  <rect x="702" y="44" width="14" height="14" rx="2" ry="2" fill="#0e4429"/>
  <rect x="702" y="62" width="14" height="14" rx="2" ry="2" fill="#161b22"/>
  <rect x="702" y="80" width="14" height="14" rx="2" ry="2" fill="#161b22"/>
  <rect x="702" y="98" width="14" height="14" rx="2" ry="2" fill="#161b22"/>
  <rect x="702" y="116" width="14" height="14" rx="2" ry="2" fill="#161b22"/>
  <rect x="702" y="134" width="14" height="14" rx="2" ry="2" fill="#161b22"/>
</svg>